<?xml version="1.0" encoding="iso-8859-1"?>
<!-- Uploaded to: SVG Repo, www.svgrepo.com, Generator: SVG Repo Mixer Tools -->
<svg fill="#000000" height="800px" width="800px" version="1.1" id="Layer_1" xmlns="http://www.w3.org/2000/svg" xmlns:xlink="http://www.w3.org/1999/xlink" 
	 viewBox="0 0 512 512" xml:space="preserve">
<g transform="translate(1 1)">
	<g>
		<g>
			<path d="M178.459,357.4H58.993c-5.12,0-8.533,3.413-8.533,8.533v102.4c0,5.12,3.413,8.533,8.533,8.533h119.467
				c5.12,0,8.533-3.413,8.533-8.533v-102.4C186.993,360.813,183.579,357.4,178.459,357.4z M169.926,459.8h-102.4v-85.333h102.4
				V459.8z"/>
			<path d="M93.126,408.6h51.2c5.12,0,8.533-3.413,8.533-8.533c0-5.12-3.413-8.533-8.533-8.533h-51.2
				c-5.12,0-8.533,3.413-8.533,8.533C84.593,405.187,88.006,408.6,93.126,408.6z"/>
			<path d="M93.126,442.733h34.133c5.12,0,8.533-3.413,8.533-8.533s-3.413-8.533-8.533-8.533H93.126
				c-5.12,0-8.533,3.413-8.533,8.533S88.006,442.733,93.126,442.733z"/>
			<path d="M510.406,81.773c-0.853-3.413-3.413-5.973-6.827-5.973l-64.853-7.68l-30.72-64c-1.707-3.413-4.267-5.12-7.68-5.12
				c-3.413,0-5.973,1.707-7.68,4.267l-30.72,64l-64.853,7.68c-3.413,0.853-5.973,2.56-6.827,5.973
				c-1.707,2.56-0.853,5.973,1.707,8.533l11.947,11.947h-48.64v-8.533c0-5.12-3.413-8.533-8.533-8.533h-85.333
				c-5.12,0-8.533,3.413-8.533,8.533v8.533H41.926c-23.893,0-42.667,18.773-42.667,42.667v324.267
				c0,23.893,19.627,42.667,42.667,42.667h324.267c23.893,0,42.667-18.773,42.667-42.667V177.74l45.227,33.74
				c2.56,1.707,6.827,1.707,9.387,0c3.413-1.707,4.267-5.12,4.267-8.533l-7.68-64l48.64-48.64
				C510.406,88.6,511.259,85.187,510.406,81.773z M169.926,101.4h68.267v8.533v84.48l-29.013-23.04
				c-1.707-0.853-3.413-1.707-5.12-1.707c-1.707,0-3.413,0.853-5.12,1.707l-29.013,23.04v-84.48V101.4z M366.193,493.933H41.926
				c-14.507,0-25.6-11.093-25.6-25.6V144.067c0-14.507,11.093-25.6,25.6-25.6h110.933v77.653c0,5.973,3.413,11.947,9.387,14.507
				c1.707,0.853,4.267,1.707,6.827,1.707c3.413,0,6.827-0.853,10.24-3.413l24.747-19.627l24.747,19.627
				c5.12,3.413,11.093,4.267,17.067,1.707c5.973-2.56,9.387-8.533,9.387-14.507v-77.653h64.853l19.627,18.773l-16.213,64
				c-0.853,3.413,0.853,7.68,3.413,9.387c0.439,0.293,0.94,0.516,1.462,0.709c1.219,0.56,2.439,0.998,3.658,0.998
				c1.707,0,3.413-0.853,5.12-1.707l54.613-33.949v291.655C391.793,482.84,380.699,493.933,366.193,493.933z M445.553,129.56
				c-1.707,1.707-2.56,4.267-2.56,6.827l5.973,49.493l-42.483-30.821c-0.557-0.598-1.187-1.137-1.89-1.606
				c-2.506-1.671-5.825-1.695-8.366-0.094c-0.34,0.054-0.681,0.094-1.021,0.094l-49.335,30.939l11.788-47.152
				c0-2.56-0.853-5.973-2.56-7.68l-25.6-25.6c-0.903-0.903-1.809-1.559-2.838-1.985L315.846,91.16l52.907-6.827
				c2.56,0,5.12-2.56,6.827-5.12l24.747-52.053l24.747,52.053c1.707,2.56,4.267,5.12,6.827,5.12l52.053,6.827L445.553,129.56z"/>
		</g>
	</g>
</g>
</svg>