<svg xmlns="http://www.w3.org/2000/svg" viewBox="0 0 512 512"><!--!Font Awesome Pro 6.7.2 by @fontawesome - https://fontawesome.com License - https://fontawesome.com/license (Commercial License) Copyright 2025 Fonticons, Inc.--><path fill="#1f2933" d="M198.9 371.6a11.9 11.9 0 0 0 -16.9-.1l-54 52.7V40a8 8 0 0 0 -8-8H104a8 8 0 0 0 -8 8v383.9l-53.9-52.4a12 12 0 0 0 -16.9 0l-5.6 5.7a12 12 0 0 0 0 17l84.1 82.3a11.9 11.9 0 0 0 16.9 0l84-82.3a12 12 0 0 0 .1-17zM276 192h152a20 20 0 0 0 20-20V52a20 20 0 0 0 -20-20H276a20 20 0 0 0 -20 20v120a20 20 0 0 0 20 20zm12-128h128v96H288zm196 192H284a28 28 0 0 0 -28 28v168a28 28 0 0 0 28 28h200a28 28 0 0 0 28-28V284a28 28 0 0 0 -28-28zm-4 192H288V288h192z"/></svg>