<?xml version="1.0" encoding="iso-8859-1"?>
<!-- Uploaded to: SVG Repo, www.svgrepo.com, Generator: SVG Repo Mixer Tools -->
<svg fill="#000000" height="800px" width="800px" version="1.1" id="Layer_1" xmlns="http://www.w3.org/2000/svg" xmlns:xlink="http://www.w3.org/1999/xlink" 
	 viewBox="0 0 511.573 511.573" xml:space="preserve">
<g transform="translate(1 1)">
	<g>
		<g>
			<path d="M178.2,335.853H58.733c-5.12,0-8.533,3.413-8.533,8.533v102.4c0,5.12,3.413,8.533,8.533,8.533H178.2
				c5.12,0,8.533-3.413,8.533-8.533v-102.4C186.733,339.267,183.32,335.853,178.2,335.853z M169.667,438.253h-102.4V352.92h102.4
				V438.253z"/>
			<path d="M92.867,387.053h51.2c5.12,0,8.533-3.413,8.533-8.533s-3.413-8.533-8.533-8.533h-51.2c-5.12,0-8.533,3.413-8.533,8.533
				S87.747,387.053,92.867,387.053z"/>
			<path d="M92.867,421.187H127c5.12,0,8.533-3.413,8.533-8.533s-3.413-8.533-8.533-8.533H92.867c-5.12,0-8.533,3.413-8.533,8.533
				S87.747,421.187,92.867,421.187z"/>
			<path d="M509.293,83.267c-28.351-39.191-66.481-62.072-107.221-63.097c-0.665-0.029-1.333-0.049-2.006-0.049
				c-0.118,0-0.234,0.008-0.352,0.009c-0.167-0.001-0.334-0.009-0.502-0.009c-39.782,0-78.757,21.738-105.984,59.733H255V71.32
				c0-5.12-3.413-8.533-8.533-8.533h-85.333c-5.12,0-8.533,3.413-8.533,8.533v8.533H40.813C17.773,79.853-1,98.627-1,122.52v324.267
				c0,23.893,18.773,42.667,41.813,42.667h325.12c23.893,0,42.667-18.773,42.667-42.667v-290.28
				c39.926-2.508,75.628-24.585,100.693-63.853C511,90.093,511,85.827,509.293,83.267z M425.667,62.787
				c0,14.507-11.093,25.6-25.6,25.6c-14.507,0-25.6-11.093-25.6-25.6s11.093-25.6,25.6-25.6
				C414.573,37.187,425.667,48.28,425.667,62.787z M169.667,79.853h68.267v8.533v84.48l-29.013-23.04
				c-1.707-0.853-3.413-1.707-5.12-1.707c-1.707,0-3.413,0.853-5.12,1.707l-29.013,23.04v-84.48V79.853z M365.933,472.387H40.813
				c-13.653,0-24.747-11.093-24.747-25.6V122.52c0-14.507,11.093-25.6,24.747-25.6H152.6v77.653c0,5.973,3.413,11.947,9.387,14.507
				c1.707,0.853,4.267,1.707,6.827,1.707c3.413,0,6.827-0.853,10.24-3.413l24.747-19.627l24.747,19.627
				c5.12,3.413,11.093,4.267,17.067,1.707S255,180.547,255,174.573V96.92h38.4c14.555,18.649,31.051,33.174,48.839,43.192
				c15.618,8.864,32.248,14.328,49.294,15.992v290.683C391.533,461.293,380.44,472.387,365.933,472.387z M405.187,139.587
				c-2.169,0.053-4.337,0.033-6.504-0.058c-0.035-0.001-0.07-0.003-0.105-0.004c-4.228-0.182-8.448-0.64-12.649-1.362
				c-0.373-0.065-0.745-0.133-1.117-0.203c-0.518-0.095-1.035-0.195-1.552-0.299c-27.382-5.584-53.532-22.991-75.056-49.664
				c15.181-20.292,33.231-34.822,52.975-43.015c-2.424,5.396-3.778,11.414-3.778,17.804c0,23.893,18.773,42.667,42.667,42.667
				c23.893,0,42.667-18.773,42.667-42.667c0-6.303-1.318-12.244-3.68-17.584c19.643,8.285,37.732,22.866,52.32,43.184
				C469.187,120.813,438.467,138.733,405.187,139.587z"/>
		</g>
	</g>
</g>
</svg>