<svg xmlns="http://www.w3.org/2000/svg" viewBox="0 0 512 512"><!--!Font Awesome Free 6.7.2 by @fontawesome - https://fontawesome.com License - https://fontawesome.com/license/free Copyright 2025 Fonticons, Inc.--><path fill="#1f2933" d="M128 256A128 128 0 1 0 256 384 128 128 0 0 0 128 256zm379-54.9L400.1 18.3a37.3 37.3 0 0 0 -64.1 0L229 201.1C214.8 225.5 232.6 256 261.1 256H474.9C503.4 256 521.2 225.5 507 201.1zM480 288H320a32 32 0 0 0 -32 32V480a32 32 0 0 0 32 32H480a32 32 0 0 0 32-32V320A32 32 0 0 0 480 288z"/></svg>