<svg xmlns="http://www.w3.org/2000/svg" viewBox="0 0 512 512"><!--!Font Awesome Pro 6.7.2 by @fontawesome - https://fontawesome.com License - https://fontawesome.com/license (Commercial License) Copyright 2025 Fonticons, Inc.--><path fill="#1f2933" d="M480 288H320c-17.7 0-32 14.3-32 32v160c0 17.7 14.3 32 32 32h160c17.7 0 32-14.3 32-32V320c0-17.7-14.3-32-32-32zm0 192H320V320h160v160zM128 256C57.3 256 0 313.3 0 384s57.3 128 128 128 128-57.3 128-128-57.3-128-128-128zm0 224c-52.9 0-96-43.1-96-96 0-52.9 43.1-96 96-96 52.9 0 96 43.1 96 96 0 52.9-43.1 96-96 96zm379-278.9L400.1 18.3C393 6.1 380.5 0 368 0s-25 6.1-32.1 18.3L229 201.1c-14.3 24.4 3.6 54.9 32.1 54.9h213.8c28.5 0 46.3-30.5 32.1-54.9zm-27.6 20.4c-.9 1.6-2.5 2.5-4.5 2.5H261.1c-2 0-3.5-.8-4.5-2.5-1.2-2.1-.4-3.6 0-4.2L363.6 34.4c1-1.6 2.4-2.4 4.5-2.4s3.5 .8 4.5 2.4L479.4 217.3c.4 .6 1.2 2.1 0 4.2z"/></svg>