<svg xmlns="http://www.w3.org/2000/svg" viewBox="0 0 640 512"><!--!Font Awesome Free 6.7.2 by @fontawesome - https://fontawesome.com License - https://fontawesome.com/license/free Copyright 2025 Fonticons, Inc.--><path fill="#1f2933" d="M224 320h32V96h-32c-17.7 0-32 14.3-32 32v160c0 17.7 14.3 32 32 32zm352-32V128c0-17.7-14.3-32-32-32h-32v224h32c17.7 0 32-14.3 32-32zm48 96H128V16c0-8.8-7.2-16-16-16H16C7.2 0 0 7.2 0 16v32c0 8.8 7.2 16 16 16h48v368c0 8.8 7.2 16 16 16h82.9c-1.8 5-2.9 10.4-2.9 16 0 26.5 21.5 48 48 48s48-21.5 48-48c0-5.6-1.2-11-2.9-16h197.9c-1.8 5-2.9 10.4-2.9 16 0 26.5 21.5 48 48 48s48-21.5 48-48c0-5.6-1.2-11-2.9-16H624c8.8 0 16-7.2 16-16v-32c0-8.8-7.2-16-16-16zM480 96V48c0-26.5-21.5-48-48-48h-96c-26.5 0-48 21.5-48 48v272h192V96zm-48 0h-96V48h96v48z"/></svg>