<svg xmlns="http://www.w3.org/2000/svg" viewBox="0 0 512 512"><!--!Font Awesome Pro 6.7.2 by @fontawesome - https://fontawesome.com License - https://fontawesome.com/license (Commercial License) Copyright 2024 Fonticons, Inc.--><path fill="#1f2933" d="M508.5 184.5l-92.5 92c-4.7 4.7-12.3 4.7-17 0l-7.1-7.1c-4.7-4.7-4.7-12.3 0-17L452.9 192H12c-6.6 0-12-5.4-12-12v-8c0-6.6 5.4-12 12-12h440.9l-60.9-60.4c-4.7-4.7-4.7-12.3 0-17l7.1-7.1c4.7-4.7 12.3-4.7 17 0l92.5 92c4.7 4.7 4.7 12.3 0 17zm-505 160l92.5 92c4.7 4.7 12.3 4.7 17 0l7.1-7.1c4.7-4.7 4.7-12.3 0-17L59.1 352H500c6.6 0 12-5.4 12-12v-8c0-6.6-5.4-12-12-12H59.1l60.9-60.4c4.7-4.7 4.7-12.3 0-17l-7.1-7.1c-4.7-4.7-12.3-4.7-17 0l-92.5 92c-4.7 4.7-4.7 12.3 0 17z"/></svg>