<?xml version="1.0" standalone="no"?>
<!DOCTYPE svg PUBLIC "-//W3C//DTD SVG 20010904//EN"
 "http://www.w3.org/TR/2001/REC-SVG-20010904/DTD/svg10.dtd">
<svg version="1.0" xmlns="http://www.w3.org/2000/svg"
 width="1280.000000pt" height="1280.000000pt" viewBox="0 0 1280.000000 1280.000000"
 preserveAspectRatio="xMidYMid meet">
<metadata>
Created by potrace 1.16, written by Peter Selinger 2001-2019
</metadata>
<g transform="translate(0.000000,1280.000000) scale(0.100000,-0.100000)"
fill="#000000" stroke="none">
<path d="M6000 12793 c-1297 -76 -2573 -570 -3600 -1394 -1274 -1022 -2108
-2479 -2339 -4084 -50 -347 -56 -449 -56 -915 0 -466 6 -568 56 -915 83 -578
256 -1176 494 -1705 804 -1790 2403 -3127 4300 -3595 314 -78 569 -122 925
-161 197 -21 803 -30 1034 -15 1427 95 2755 648 3832 1597 127 113 435 421
548 548 833 946 1365 2092 1545 3331 50 341 55 438 55 915 0 477 -5 574 -55
915 -84 581 -257 1178 -493 1703 -404 899 -1022 1706 -1786 2333 -1030 846
-2286 1345 -3620 1439 -131 9 -703 11 -840 3z m910 -888 c1473 -142 2803 -847
3752 -1991 599 -722 1011 -1608 1178 -2533 65 -362 84 -592 84 -991 -1 -335
-12 -504 -54 -790 -262 -1795 -1409 -3363 -3045 -4165 -516 -253 -1047 -418
-1615 -504 -281 -42 -470 -55 -810 -55 -351 0 -533 13 -840 60 -1777 272
-3330 1416 -4125 3039 -307 628 -481 1259 -547 1985 -16 178 -16 697 0 880 84
947 373 1791 880 2570 544 836 1311 1515 2207 1955 659 323 1346 505 2097 555
185 12 640 4 838 -15z"/>
<path d="M7792 9438 l-322 -323 1127 -1127 1128 -1128 -3983 0 -3982 0 0 -460
0 -460 3982 0 3983 0 -1128 -1128 -1127 -1127 325 -325 325 -325 1683 1683
1682 1682 -1680 1680 c-924 924 -1682 1680 -1685 1680 -3 0 -150 -145 -328
-322z"/>
</g>
</svg>
