<svg xmlns="http://www.w3.org/2000/svg" height="20" width="20" viewBox="0 0 512 512"><!--!Font Awesome Pro 6.7.2 by @fontawesome - https://fontawesome.com License - https://fontawesome.com/license (Commercial License) Copyright 2025 Fonticons, Inc.--><path fill="#1f2933" d="M208 96c-49.5 0-89.8 40.3-89.8 89.8 0 34.7 38.3 87.2 70.5 125.2 4.8 5.7 11.8 9 19.3 9s14.5-3.3 19.3-9c32.2-38 70.5-90.6 70.5-125.2C297.8 136.3 257.5 96 208 96zm0 188.2c-35.3-42.7-57.8-80.9-57.8-98.4 0-31.9 25.9-57.8 57.8-57.8s57.8 25.9 57.8 57.8c0 17.5-22.5 55.7-57.8 98.4zM208 160c-13.3 0-24 10.7-24 24 0 13.3 10.8 24 24 24s24-10.8 24-24c0-13.3-10.8-24-24-24zm300.5 321.6l-129-129c-2.3-2.3-5.3-3.5-8.5-3.5h-10.3c34.3-37.1 55.3-86.6 55.3-141.1C416 93.1 322.9 0 208 0S0 93.1 0 208c0 114.9 93.1 208 208 208 54.5 0 104-21 141.1-55.2v10.2c0 3.2 1.3 6.2 3.5 8.5l129 129c4.7 4.7 12.3 4.7 17 0l9.9-9.9c4.7-4.7 4.7-12.3 0-17zm-300.5-97.6C110.7 384 32 305.3 32 208 32 110.7 110.7 32 208 32s176 78.7 176 176c0 97.3-78.7 176-176 176z"/></svg>