<svg height="256px" width="256px" version="1.1" id="Capa_1" xmlns="http://www.w3.org/2000/svg" xmlns:xlink="http://www.w3.org/1999/xlink" viewBox="0 0 331.16 331.16" xml:space="preserve" fill="#1f2933" stroke="#1f2933" stroke-width="0.0033116100000000004"><g id="SVGRepo_bgCarrier" stroke-width="0"></g><g id="SVGRepo_tracerCarrier" stroke-linecap="round" stroke-linejoin="round"></g><g id="SVGRepo_iconCarrier"> <g> <path style="fill:#1f2933;" d="M45.11,231.959c2.082-0.292,4.195-0.495,6.355-0.495c12.351,0,23.533,4.941,31.732,12.93 c8.479,8.264,13.766,19.792,13.766,32.567h16.409c0-12.775,5.281-24.303,13.766-32.567c8.198-7.99,19.38-12.93,31.732-12.93 c11.952,0,22.799,4.648,30.92,12.184c6.862,6.373,11.779,14.81,13.688,24.351c3.306-4.093,5.37-9.237,5.37-14.911V214.56v-6.217 V33.567c0-13.181-10.687-23.867-23.867-23.867H63.649c-13.181,0-23.867,10.687-23.867,23.867v150.914H23.867 C10.687,184.481,0,195.167,0,208.348V253.1c0,6.385,2.542,12.155,6.623,16.433C9.839,250.015,25.443,234.716,45.11,231.959z M60.015,48.663c0-10.024,8.127-18.151,18.151-18.151h92.284c10.024,0,18.151,8.127,18.151,18.151v103.06 c0,10.024-8.127,18.151-18.151,18.151H78.172c-10.024,0-18.151-8.127-18.151-18.151V48.663H60.015z"></path> <path style="fill:#1f2933;" d="M246.133,242.485V62.267V28.554c0-6.587-5.346-11.934-11.934-11.934 c-6.587,0-11.934,5.346-11.934,11.934v215.708c0,10.949,9.446,36.422,96.962,36.422c6.587,0,11.934-5.346,11.934-11.934 s-5.346-11.934-11.934-11.934c-1.486,0-2.816-0.042-4.242-0.054C260.406,256.191,248.079,244.848,246.133,242.485z"></path> <path style="fill:#1f2933;" d="M51.715,244.394c-18.491,0-33.928,13.032-37.663,30.407c-0.561,2.619-0.877,5.334-0.877,8.127 c0,21.284,17.256,38.534,38.534,38.534s38.534-17.25,38.534-38.534c0-2.035-0.203-4.016-0.507-5.967 C86.866,258.524,70.964,244.394,51.715,244.394z M72.348,282.928c0,11.379-9.255,20.633-20.633,20.633s-20.633-9.255-20.633-20.633 c0-2.088,0.406-4.063,0.985-5.967c2.578-8.455,10.364-14.667,19.649-14.667s17.071,6.212,19.649,14.667 C71.943,278.865,72.348,280.84,72.348,282.928z"></path> <path style="fill:#1f2933;" d="M159.119,244.394c-19.249,0-35.151,14.13-38.027,32.567c-0.304,1.951-0.507,3.932-0.507,5.967 c0,21.284,17.256,38.534,38.534,38.534s38.534-17.25,38.534-38.534c0-3.133-0.412-6.158-1.122-9.076 C192.449,256.96,177.27,244.394,159.119,244.394z M179.752,282.928c0,11.379-9.255,20.633-20.633,20.633 s-20.633-9.255-20.633-20.633c0-2.088,0.406-4.063,0.985-5.967c2.578-8.455,10.364-14.667,19.649-14.667 c9.284,0,17.071,6.212,19.649,14.667C179.346,278.865,179.752,280.84,179.752,282.928z"></path> </g> </g></svg>