<svg fill="#1f2933" height="256px" width="256px" version="1.1" id="Layer_1" xmlns="http://www.w3.org/2000/svg" xmlns:xlink="http://www.w3.org/1999/xlink" viewBox="0 0 512.00 512.00" xml:space="preserve" stroke="#1f2933" stroke-width="0.00512" transform="matrix(-1, 0, 0, 1, 0, 0)"><g id="SVGRepo_bgCarrier" stroke-width="0"></g><g id="SVGRepo_tracerCarrier" stroke-linecap="round" stroke-linejoin="round"></g><g id="SVGRepo_iconCarrier"> <g> <g> <circle cx="144.138" cy="437.951" r="19.991"></circle> </g> </g> <g> <g> <path d="M408.645,400.482V278.551h22.221V126.5H228.927v121.62h-41.172v130.048c-8.326-6.09-17.959-10.491-28.399-12.681V59.981 L99.376,0L77.859,21.517l51.068,51.068v292.904c-33.554,7.036-58.831,36.852-58.831,72.466c0,40.828,33.217,74.045,74.046,74.045 c27.161,0,50.938-14.71,63.823-36.572h233.939v-74.946H408.645z M187.7,440.15c-0.01,0.199-0.03,0.395-0.043,0.593 c-0.033,0.531-0.068,1.061-0.121,1.586c-0.021,0.218-0.054,0.435-0.079,0.653c-0.058,0.502-0.117,1.003-0.191,1.5 c-0.034,0.227-0.078,0.452-0.117,0.679c-0.08,0.482-0.161,0.964-0.258,1.44c-0.049,0.24-0.106,0.479-0.159,0.719 c-0.1,0.455-0.201,0.911-0.315,1.362c-0.066,0.259-0.141,0.516-0.212,0.774c-0.117,0.424-0.232,0.849-0.361,1.268 c-0.084,0.275-0.179,0.549-0.269,0.823c-0.131,0.399-0.262,0.797-0.404,1.191c-0.098,0.273-0.207,0.544-0.31,0.815 c-6.292,16.364-22.167,28.016-40.721,28.016c-24.05,0-43.616-19.566-43.616-43.615c0-24.05,19.566-43.616,43.616-43.616 c18.539,0,34.403,11.632,40.704,27.979c0.111,0.288,0.225,0.575,0.33,0.865c0.138,0.381,0.264,0.769,0.392,1.155 c0.093,0.284,0.191,0.568,0.279,0.853c0.127,0.413,0.241,0.832,0.356,1.25c0.072,0.264,0.149,0.525,0.216,0.79 c0.114,0.448,0.214,0.902,0.313,1.355c0.053,0.241,0.112,0.482,0.16,0.723c0.096,0.477,0.178,0.96,0.259,1.442 c0.038,0.225,0.081,0.45,0.116,0.677c0.075,0.498,0.134,1.002,0.192,1.505c0.024,0.216,0.057,0.431,0.078,0.648 c0.053,0.527,0.088,1.059,0.122,1.59c0.012,0.197,0.032,0.392,0.043,0.589c0.037,0.727,0.056,1.459,0.056,2.194 S187.737,439.423,187.7,440.15z M259.357,156.93h55.324v27.492h30.43V156.93h55.324v91.19H259.357V156.93z M218.186,278.551 h10.742h54.058v49.56h30.43v-49.56h64.799v121.931H218.186V278.551z M217.855,444.998c0.071-0.748,0.111-1.499,0.159-2.251 c0.023-0.371,0.06-0.738,0.078-1.111c0.06-1.223,0.093-2.45,0.093-3.681s-0.034-2.459-0.093-3.681 c-0.018-0.373-0.055-0.74-0.079-1.113c-0.048-0.751-0.088-1.502-0.159-2.249h190.79h2.829v14.085H217.855z"></path> </g> </g> </g></svg>