<?xml version="1.0" encoding="iso-8859-1"?>
<!-- Uploaded to: SVG Repo, www.svgrepo.com, Generator: SVG Repo Mixer Tools -->
<svg fill="#000000" height="800px" width="800px" version="1.1" id="Layer_1" xmlns="http://www.w3.org/2000/svg" xmlns:xlink="http://www.w3.org/1999/xlink" 
	 viewBox="0 0 512 512" xml:space="preserve">
<g transform="translate(1 1)">
	<g>
		<g>
			<path d="M511,109.933C511,48.493,461.507-1,400.067-1c-58.568,0-106.28,44.975-110.612,102.4H255v-8.533
				c0-5.12-3.413-8.533-8.533-8.533h-85.333c-5.12,0-8.533,3.413-8.533,8.533v8.533H41.667C17.773,101.4-1,120.173-1,144.067
				v324.267C-1,492.227,18.627,511,41.667,511h324.267c23.893,0,42.667-18.773,42.667-42.667V220.546
				C466.025,216.214,511,168.502,511,109.933z M169.667,101.4h68.267v8.533v84.48l-29.013-23.04
				c-1.707-0.853-3.413-1.707-5.12-1.707c-1.707,0-3.413,0.853-5.12,1.707l-29.013,23.04v-84.48V101.4z M391.533,468.333
				c0,14.507-11.093,25.6-25.6,25.6H41.667c-14.507,0-25.6-11.093-25.6-25.6V144.067c0-14.507,11.093-25.6,25.6-25.6H152.6v77.653
				c0,5.973,3.413,11.947,9.387,14.507c1.707,0.853,4.267,1.707,6.827,1.707c3.413,0,6.827-0.853,10.24-3.413l24.747-19.627
				l24.747,19.627c5.12,3.413,11.093,4.267,17.067,1.707c5.973-2.56,9.387-8.533,9.387-14.507v-77.653h34.133
				c4.267,54.613,47.787,98.133,102.4,102.4V468.333z M400.067,203.8c-52.053,0-93.867-41.813-93.867-93.867
				s41.813-93.867,93.867-93.867c52.053,0,93.867,41.813,93.867,93.867S452.12,203.8,400.067,203.8z"/>
			<path d="M442.733,101.4H408.6V41.667c0-5.12-3.413-8.533-8.533-8.533c-5.12,0-8.533,3.413-8.533,8.533v68.267
				c0,5.12,3.413,8.533,8.533,8.533h42.667c5.12,0,8.533-3.413,8.533-8.533S447.853,101.4,442.733,101.4z"/>
			<path d="M178.2,357.4H58.733c-5.12,0-8.533,3.413-8.533,8.533v102.4c0,5.12,3.413,8.533,8.533,8.533H178.2
				c5.12,0,8.533-3.413,8.533-8.533v-102.4C186.733,360.813,183.32,357.4,178.2,357.4z M169.667,459.8h-102.4v-85.333h102.4V459.8z"
				/>
			<path d="M92.867,408.6h51.2c5.12,0,8.533-3.413,8.533-8.533c0-5.12-3.413-8.533-8.533-8.533h-51.2
				c-5.12,0-8.533,3.413-8.533,8.533C84.333,405.187,87.747,408.6,92.867,408.6z"/>
			<path d="M92.867,442.733H127c5.12,0,8.533-3.413,8.533-8.533s-3.413-8.533-8.533-8.533H92.867c-5.12,0-8.533,3.413-8.533,8.533
				S87.747,442.733,92.867,442.733z"/>
		</g>
	</g>
</g>
</svg>