<svg xmlns="http://www.w3.org/2000/svg" viewBox="0 0 640 512"><!--!Font Awesome Pro 6.7.2 by @fontawesome - https://fontawesome.com License - https://fontawesome.com/license (Commercial License) Copyright 2025 Fonticons, Inc.--><path fill="#1f2933" d="M634.8 363.8l-98.3 98.3c-4.7 4.7-12.3 4.7-17 0l-98.3-98.3c-4.7-4.7-4.7-12.3 0-17l5.7-5.7c4.7-4.7 12.3-4.7 17 0l68.2 68.2V128H260a12 12 0 0 1 -8.5-3.5l-8-8c-7.6-7.6-2.2-20.5 8.5-20.5H520c13.3 0 24 10.7 24 24v289.4l68.2-68.2c4.7-4.7 12.3-4.7 17 0l5.7 5.7c4.7 4.7 4.7 12.3 0 17zm-246.4 23.7a12 12 0 0 0 -8.5-3.5H128V102.6l68.2 68.2c4.7 4.7 12.3 4.7 17 0l5.7-5.7c4.7-4.7 4.7-12.3 0-17l-98.3-98.3c-4.7-4.7-12.3-4.7-17 0L5.2 148.2c-4.7 4.7-4.7 12.3 0 17l5.7 5.7c4.7 4.7 12.3 4.7 17 0L96 102.6V392c0 13.3 10.7 24 24 24h268c10.7 0 16-12.9 8.5-20.5l-8-8z"/></svg>