<?xml version="1.0" encoding="iso-8859-1"?>
<!-- Uploaded to: SVG Repo, www.svgrepo.com, Generator: SVG Repo Mixer Tools -->
<svg fill="#000000" height="800px" width="800px" version="1.1" id="Layer_1" xmlns="http://www.w3.org/2000/svg" xmlns:xlink="http://www.w3.org/1999/xlink" 
	 viewBox="0 0 512 512" xml:space="preserve">
<g transform="translate(1 1)">
	<g>
		<path d="M476.867,331.8h-8.533V255c0-5.12-3.413-8.533-8.533-8.533h-8.533V84.333c0-5.12-3.413-8.533-8.533-8.533h-76.8H331.8H255
			c-5.12,0-8.533,3.413-8.533,8.533V178.2H229.4h-34.133c-5.12,0-8.533,3.413-8.533,8.533V331.8H178.2h-8.533V144.067
			c0-37.547-30.72-68.267-68.267-68.267h-8.533H33.133C14.36,75.8-1,91.16-1,109.933c0,18.773,15.36,34.133,34.133,34.133h59.733
			h8.533V331.8c0,37.547,30.72,68.267,68.267,68.267h8.533h42.667c0,18.773,15.36,34.133,34.133,34.133
			c18.773,0,34.133-15.36,34.133-34.133h102.4c0,18.773,15.36,34.133,34.133,34.133s34.133-15.36,34.133-34.133h17.067
			c18.773,0,34.133-15.36,34.133-34.133C511,347.16,495.64,331.8,476.867,331.8z M297.667,263.533h25.6v25.6
			c0,5.12,3.413,8.533,8.533,8.533h34.133c5.12,0,8.533-3.413,8.533-8.533v-25.6h68.267h8.533V331.8H263.533v-68.267H297.667z
			 M340.333,263.533H357.4V280.6h-17.067V263.533z M357.4,92.867v17.067h-17.067V92.867H357.4z M263.533,92.867h59.733v25.6
			c0,5.12,3.413,8.533,8.533,8.533h34.133c5.12,0,8.533-3.413,8.533-8.533v-25.6H434.2v153.6h-68.267H331.8h-25.6v-59.733
			c0-5.12-3.413-8.533-8.533-8.533h-34.133V92.867z M255,195.267v17.067h-17.067v-17.067H255z M203.8,195.267h17.067v25.6
			c0,5.12,3.413,8.533,8.533,8.533h34.133c5.12,0,8.533-3.413,8.533-8.533v-25.6h17.067v51.2H255c-5.12,0-8.533,3.413-8.533,8.533
			v76.8H203.8V195.267z M16.067,109.933c0-9.387,7.68-17.067,17.067-17.067h51.2V127h-51.2C23.747,127,16.067,119.32,16.067,109.933
			z M118.467,331.8V144.067c0-9.387-7.68-17.067-17.067-17.067V92.867c28.16,0,51.2,23.04,51.2,51.2V331.8
			c0,9.387,7.68,17.067,17.067,17.067V383C141.507,383,118.467,359.96,118.467,331.8z M255,417.133
			c-9.387,0-17.067-7.68-17.067-17.067c0-6.998,4.272-13.043,10.334-15.669c0.064-0.027,0.126-0.056,0.19-0.082
			c0.393-0.164,0.796-0.307,1.203-0.443c0.235-0.077,0.471-0.147,0.708-0.214c0.314-0.089,0.63-0.175,0.951-0.246
			c0.228-0.051,0.458-0.091,0.687-0.132c0.292-0.052,0.587-0.099,0.884-0.136c0.196-0.025,0.392-0.05,0.588-0.068
			c0.502-0.045,1.007-0.077,1.52-0.077c9.387,0,17.067,7.68,17.067,17.067S264.387,417.133,255,417.133z M425.667,417.133
			c-9.387,0-17.067-7.68-17.067-17.067S416.28,383,425.667,383c0,0,0,0,0,0c9.387,0,17.067,7.68,17.067,17.067
			C442.733,409.453,435.053,417.133,425.667,417.133z M476.867,383h-21.333c-6.827-10.24-16.213-17.067-29.013-17.067
			c-0.125,0-0.246,0.011-0.37,0.012c-0.161-0.002-0.321-0.012-0.483-0.012c-12.565,0-23.594,6.886-29.518,17.067H284.867
			c-1.002-1.503-2.105-2.921-3.28-4.266c-5.816-7.226-14.5-12.053-24.283-12.714c-0.043-0.003-0.086-0.007-0.129-0.01
			c-0.72-0.046-1.444-0.077-2.175-0.077c-0.693,0-1.38,0.027-2.063,0.069c-0.3,0.017-0.598,0.044-0.896,0.069
			c-0.321,0.028-0.641,0.059-0.96,0.096c-11.122,1.237-20.594,7.655-25.947,16.833h-38.4v-34.133h8.533H255h204.8h17.067
			c9.387,0,17.067,7.68,17.067,17.067S486.253,383,476.867,383z"/>
	</g>
</g>
</svg>